<svg id="Layer_1" data-name="Layer 1" xmlns="http://www.w3.org/2000/svg" viewBox="0 0 38.55 47.29" width="100%" height="100%">
    <defs>
    <style>.cls-1{fill:#6843e0;}</style>
    </defs>
    <path 
    class="cls-1" 
    d="M6.35793,19.84572a8.65223,8.65223,0,0,1,2.12228-5.84124,8.46755,8.46755,0,0,1,4.25935-2.74141,8.62833,8.62833,0,0,1,3.31324-.26242,8.42728,8.42728,0,0,1,3.18517,1.0356,4.622,4.622,0,0,0,2.94265.52795,5.13476,5.13476,0,0,0,2.89969-1.38858,5.51887,5.51887,0,0,0,1.58415-2.8773,8.44342,8.44342,0,0,1,1.537-3.21176,8.64216,8.64216,0,0,1,4.16778-3.02894,8.10643,8.10643,0,0,1,2.26025-.4245,8.40653,8.40653,0,0,1,7.10909,3.15493A8.28853,8.28853,0,0,1,43.59161,8.6279a8.88092,8.88092,0,0,1-1.89475,7.6862,8.64521,8.64521,0,0,1-4.1126,2.75911,8.53245,8.53245,0,0,1-3.48645.31254,7.39848,7.39848,0,0,1-2.93686-.93788,5.03486,5.03486,0,0,0-2.43287-.6815,4.74911,4.74911,0,0,0-3.1349,1.02283,13.14683,13.14683,0,0,0-1.2751,1.3089.31429.31429,0,0,0-.0268.2808,5.113,5.113,0,0,0,2.64628,2.4662,4.76593,4.76593,0,0,0,2.20109.39921,6.73115,6.73115,0,0,0,2.0222-.50561,8.14236,8.14236,0,0,1,3.85926-.54369,8.54459,8.54459,0,0,1,3.93306,1.37307,8.76743,8.76743,0,0,1,3.50971,4.49936,9.06244,9.06244,0,0,1-1.03836,8.10094,8.70014,8.70014,0,0,1-3.63618,3.08168,8.97926,8.97926,0,0,1-2.54946.71062,8.14708,8.14708,0,0,1-2.35822-.04712,7.357,7.357,0,0,1-2.613-.89017,5.4414,5.4414,0,0,0-2.78675-.81042,4.99838,4.99838,0,0,0-2.979.96221A5.2092,5.2092,0,0,0,22.469,42.0588a10.48271,10.48271,0,0,1-.86993,2.27184,8.84146,8.84146,0,0,1-3.67464,3.63651,7.599,7.599,0,0,1-2.88534.9065,12.283,12.283,0,0,1-2.49473-.07092,7.6851,7.6851,0,0,1-3.56842-1.4542,8.80985,8.80985,0,0,1-2.90432-3.49629,8.09074,8.09074,0,0,1-.7336-2.45607,9.50654,9.50654,0,0,1,.2326-3.88311,9.06913,9.06913,0,0,1,1.696-3.22912,8.73607,8.73607,0,0,1,7.32956-3.19021,11.05827,11.05827,0,0,1,1.48429.2573,12.56946,12.56946,0,0,1,2.70828,1.14187,4.65566,4.65566,0,0,0,2.60714.34359,5.14589,5.14589,0,0,0,3.53478-2.1307.35575.35575,0,0,0,.00072-.30962,5.13685,5.13685,0,0,0-2.17382-2.10752,4.90676,4.90676,0,0,0-3.03324-.51332,8.94966,8.94966,0,0,0-1.63144.491A8.69715,8.69715,0,0,1,7.98831,25.09176,8.30949,8.30949,0,0,1,6.6122,22.10217,17.74833,17.74833,0,0,1,6.35793,19.84572Z" 
    transform="translate(-5.2412 -1.62136)"
    />
    </svg>